<svg width="132" height="42" viewBox="0 0 132 42" fill="none" xmlns="http://www.w3.org/2000/svg">
<path d="M53.4663 17.3516H51.0229V24.0312H53.4663C55.5405 24.0312 56.771 22.6602 56.771 20.6914C56.771 18.6699 55.5933 17.3516 53.4663 17.3516ZM53.4663 23.0645H52.1304V18.3184H53.4663C54.8198 18.3184 55.6284 19.2324 55.6284 20.6914C55.6284 22.1504 54.8198 23.0645 53.4663 23.0645ZM58.1245 18.0195H59.2847V16.9648H58.1245V18.0195ZM58.1772 24.0312H59.2319V18.7578H58.1772V24.0312ZM61.0073 18.0195H62.1675V16.9648H61.0073V18.0195ZM61.0601 24.0312H62.1147V18.7578H61.0601V24.0312ZM68.144 23.1172C67.9155 23.1172 67.8101 23.0117 67.8101 22.7832V20.4102C67.8101 19.3203 67.0366 18.6699 65.771 18.6699C64.8569 18.6699 64.1011 18.9863 63.4858 19.5664L64.1362 20.252C64.5581 19.8125 65.1206 19.5488 65.7183 19.5488C66.3862 19.5488 66.8257 19.8301 66.8257 20.252C66.8257 20.6562 66.439 20.7266 65.6479 20.832C64.6284 20.9902 63.3804 21.2715 63.3804 22.5723C63.3804 23.4863 64.0659 24.1191 65.103 24.1191C65.8765 24.1191 66.5796 23.7676 66.9487 23.2227C67.019 23.8379 67.3179 24.0664 67.9683 24.0664C68.144 24.0664 68.2847 24.0488 68.3374 24.0312V23.1172H68.144ZM65.2788 23.2578C64.7339 23.2578 64.4175 22.9941 64.4175 22.502C64.4175 21.8164 65.103 21.7109 65.771 21.6055C66.2808 21.5176 66.5972 21.4648 66.7905 21.3418V22.0273C66.7905 22.6953 66.0874 23.2578 65.2788 23.2578ZM75.1753 24.1191C76.5464 24.1191 77.5835 23.3809 77.9702 22.1504L76.9331 21.7812C76.6694 22.6953 76.0542 23.1523 75.1577 23.1523C73.9097 23.1523 73.1362 22.2207 73.1362 20.6914C73.1362 19.1973 73.9448 18.2305 75.1577 18.2305C76.0542 18.2305 76.6694 18.6875 76.9331 19.6016L77.9702 19.2324C77.5835 17.9668 76.5464 17.2637 75.1753 17.2637C73.2944 17.2637 71.9937 18.6523 71.9937 20.6914C71.9937 22.7656 73.2417 24.1191 75.1753 24.1191ZM81.3276 24.1191C82.9097 24.1191 83.9995 23.0117 83.9995 21.3945C83.9995 19.7422 82.9448 18.6699 81.3276 18.6699C79.7456 18.6699 78.6558 19.7773 78.6558 21.3945C78.6558 23.0469 79.7104 24.1191 81.3276 24.1191ZM81.3276 23.2227C80.3608 23.2227 79.728 22.502 79.728 21.3945C79.728 20.2871 80.3608 19.5664 81.3276 19.5664C82.2944 19.5664 82.9272 20.2871 82.9272 21.3945C82.9272 22.502 82.2944 23.2227 81.3276 23.2227ZM91.5757 18.6699C90.7495 18.6699 90.064 19.0742 89.6948 19.6895C89.396 19.0566 88.8159 18.6699 88.0249 18.6699C87.2515 18.6699 86.6187 19.0039 86.2495 19.5488L86.1792 18.7578H85.2651V24.0312H86.3198V21.0078C86.3198 20.1641 86.9175 19.5664 87.7261 19.5664C88.4644 19.5664 88.8335 20.0762 88.8335 20.9727V24.0312H89.8882V21.0078C89.8882 20.1641 90.4858 19.5664 91.2944 19.5664C92.0151 19.5664 92.4019 20.0762 92.4019 20.9727V24.0312H93.4565V20.6914C93.4565 19.4785 92.7183 18.6699 91.5757 18.6699ZM97.8159 18.6699C97.0601 18.6699 96.4272 19.0039 96.0054 19.584L95.9351 18.7578H95.021V25.7891H96.0757V23.3281C96.48 23.8379 97.0952 24.1191 97.8159 24.1191C99.1694 24.1191 100.119 23.0117 100.119 21.3945C100.119 19.7422 99.2046 18.6699 97.8159 18.6699ZM97.5347 23.2227C96.603 23.2227 96.0054 22.502 96.0054 21.3945C96.0054 20.2871 96.603 19.5664 97.5347 19.5664C98.4663 19.5664 99.0464 20.2871 99.0464 21.3945C99.0464 22.502 98.4663 23.2227 97.5347 23.2227ZM105.568 23.1172C105.339 23.1172 105.234 23.0117 105.234 22.7832V20.4102C105.234 19.3203 104.46 18.6699 103.195 18.6699C102.281 18.6699 101.525 18.9863 100.91 19.5664L101.56 20.252C101.982 19.8125 102.544 19.5488 103.142 19.5488C103.81 19.5488 104.25 19.8301 104.25 20.252C104.25 20.6562 103.863 20.7266 103.072 20.832C102.052 20.9902 100.804 21.2715 100.804 22.5723C100.804 23.4863 101.49 24.1191 102.527 24.1191C103.3 24.1191 104.003 23.7676 104.373 23.2227C104.443 23.8379 104.742 24.0664 105.392 24.0664C105.568 24.0664 105.708 24.0488 105.761 24.0312V23.1172H105.568ZM102.703 23.2578C102.158 23.2578 101.841 22.9941 101.841 22.502C101.841 21.8164 102.527 21.7109 103.195 21.6055C103.705 21.5176 104.021 21.4648 104.214 21.3418V22.0273C104.214 22.6953 103.511 23.2578 102.703 23.2578ZM109.787 18.6699C108.996 18.6699 108.328 19.0215 107.923 19.584L107.853 18.7578H106.939V24.0312H107.994V21.0078C107.994 20.1641 108.662 19.5664 109.488 19.5664C110.208 19.5664 110.648 20.0762 110.648 20.9727V24.0312H111.703V20.6914C111.703 19.4785 110.912 18.6699 109.787 18.6699ZM116.835 18.7578L115.394 23.1699L113.548 18.7578H112.388L114.867 24.3828C114.673 24.7344 114.462 24.9277 114.181 24.9277C113.724 24.9277 113.601 24.5762 113.619 24.1719L112.652 24.3301C112.652 25.1387 113.109 25.877 114.164 25.877C115.06 25.877 115.64 25.1738 115.974 24.2246L117.925 18.7578H116.835Z" fill="white"/>
<rect x="39.021" y="1" width="91" height="39.0625" rx="19.5312" stroke="#3624FF" stroke-width="2"/>
<path fill-rule="evenodd" clip-rule="evenodd" d="M3.34469 10.8867H26.3073V9H0V34.3329H1.95927V12.2208L25.6146 35L27 33.6659L3.34469 10.8867Z" fill="white"/>
</svg>
