<svg width="94" height="78" viewBox="0 0 94 78" fill="none" xmlns="http://www.w3.org/2000/svg">
<path d="M15.4658 53.3516H13.0225V60.0312H15.4658C17.54 60.0312 18.7705 58.6602 18.7705 56.6914C18.7705 54.6699 17.5928 53.3516 15.4658 53.3516ZM15.4658 59.0645H14.1299V54.3184H15.4658C16.8193 54.3184 17.6279 55.2324 17.6279 56.6914C17.6279 58.1504 16.8193 59.0645 15.4658 59.0645ZM20.124 54.0195H21.2842V52.9648H20.124V54.0195ZM20.1768 60.0312H21.2314V54.7578H20.1768V60.0312ZM23.0068 54.0195H24.167V52.9648H23.0068V54.0195ZM23.0596 60.0312H24.1143V54.7578H23.0596V60.0312ZM30.1436 59.1172C29.915 59.1172 29.8096 59.0117 29.8096 58.7832V56.4102C29.8096 55.3203 29.0361 54.6699 27.7705 54.6699C26.8564 54.6699 26.1006 54.9863 25.4854 55.5664L26.1357 56.252C26.5576 55.8125 27.1201 55.5488 27.7178 55.5488C28.3857 55.5488 28.8252 55.8301 28.8252 56.252C28.8252 56.6562 28.4385 56.7266 27.6475 56.832C26.6279 56.9902 25.3799 57.2715 25.3799 58.5723C25.3799 59.4863 26.0654 60.1191 27.1025 60.1191C27.876 60.1191 28.5791 59.7676 28.9482 59.2227C29.0186 59.8379 29.3174 60.0664 29.9678 60.0664C30.1436 60.0664 30.2842 60.0488 30.3369 60.0312V59.1172H30.1436ZM27.2783 59.2578C26.7334 59.2578 26.417 58.9941 26.417 58.502C26.417 57.8164 27.1025 57.7109 27.7705 57.6055C28.2803 57.5176 28.5967 57.4648 28.79 57.3418V58.0273C28.79 58.6953 28.0869 59.2578 27.2783 59.2578ZM37.1748 60.1191C38.5459 60.1191 39.583 59.3809 39.9697 58.1504L38.9326 57.7812C38.6689 58.6953 38.0537 59.1523 37.1572 59.1523C35.9092 59.1523 35.1357 58.2207 35.1357 56.6914C35.1357 55.1973 35.9443 54.2305 37.1572 54.2305C38.0537 54.2305 38.6689 54.6875 38.9326 55.6016L39.9697 55.2324C39.583 53.9668 38.5459 53.2637 37.1748 53.2637C35.2939 53.2637 33.9932 54.6523 33.9932 56.6914C33.9932 58.7656 35.2412 60.1191 37.1748 60.1191ZM43.3271 60.1191C44.9092 60.1191 45.999 59.0117 45.999 57.3945C45.999 55.7422 44.9443 54.6699 43.3271 54.6699C41.7451 54.6699 40.6553 55.7773 40.6553 57.3945C40.6553 59.0469 41.71 60.1191 43.3271 60.1191ZM43.3271 59.2227C42.3604 59.2227 41.7275 58.502 41.7275 57.3945C41.7275 56.2871 42.3604 55.5664 43.3271 55.5664C44.2939 55.5664 44.9268 56.2871 44.9268 57.3945C44.9268 58.502 44.2939 59.2227 43.3271 59.2227ZM53.5752 54.6699C52.749 54.6699 52.0635 55.0742 51.6943 55.6895C51.3955 55.0566 50.8154 54.6699 50.0244 54.6699C49.251 54.6699 48.6182 55.0039 48.249 55.5488L48.1787 54.7578H47.2646V60.0312H48.3193V57.0078C48.3193 56.1641 48.917 55.5664 49.7256 55.5664C50.4639 55.5664 50.833 56.0762 50.833 56.9727V60.0312H51.8877V57.0078C51.8877 56.1641 52.4854 55.5664 53.2939 55.5664C54.0146 55.5664 54.4014 56.0762 54.4014 56.9727V60.0312H55.4561V56.6914C55.4561 55.4785 54.7178 54.6699 53.5752 54.6699ZM59.8154 54.6699C59.0596 54.6699 58.4268 55.0039 58.0049 55.584L57.9346 54.7578H57.0205V61.7891H58.0752V59.3281C58.4795 59.8379 59.0947 60.1191 59.8154 60.1191C61.1689 60.1191 62.1182 59.0117 62.1182 57.3945C62.1182 55.7422 61.2041 54.6699 59.8154 54.6699ZM59.5342 59.2227C58.6025 59.2227 58.0049 58.502 58.0049 57.3945C58.0049 56.2871 58.6025 55.5664 59.5342 55.5664C60.4658 55.5664 61.0459 56.2871 61.0459 57.3945C61.0459 58.502 60.4658 59.2227 59.5342 59.2227ZM67.5674 59.1172C67.3389 59.1172 67.2334 59.0117 67.2334 58.7832V56.4102C67.2334 55.3203 66.46 54.6699 65.1943 54.6699C64.2803 54.6699 63.5244 54.9863 62.9092 55.5664L63.5596 56.252C63.9814 55.8125 64.5439 55.5488 65.1416 55.5488C65.8096 55.5488 66.249 55.8301 66.249 56.252C66.249 56.6562 65.8623 56.7266 65.0713 56.832C64.0518 56.9902 62.8037 57.2715 62.8037 58.5723C62.8037 59.4863 63.4893 60.1191 64.5264 60.1191C65.2998 60.1191 66.0029 59.7676 66.3721 59.2227C66.4424 59.8379 66.7412 60.0664 67.3916 60.0664C67.5674 60.0664 67.708 60.0488 67.7607 60.0312V59.1172H67.5674ZM64.7021 59.2578C64.1572 59.2578 63.8408 58.9941 63.8408 58.502C63.8408 57.8164 64.5264 57.7109 65.1943 57.6055C65.7041 57.5176 66.0205 57.4648 66.2139 57.3418V58.0273C66.2139 58.6953 65.5107 59.2578 64.7021 59.2578ZM71.7861 54.6699C70.9951 54.6699 70.3271 55.0215 69.9229 55.584L69.8525 54.7578H68.9385V60.0312H69.9932V57.0078C69.9932 56.1641 70.6611 55.5664 71.4873 55.5664C72.208 55.5664 72.6475 56.0762 72.6475 56.9727V60.0312H73.7021V56.6914C73.7021 55.4785 72.9111 54.6699 71.7861 54.6699ZM78.835 54.7578L77.3936 59.1699L75.5479 54.7578H74.3877L76.8662 60.3828C76.6729 60.7344 76.4619 60.9277 76.1807 60.9277C75.7236 60.9277 75.6006 60.5762 75.6182 60.1719L74.6514 60.3301C74.6514 61.1387 75.1084 61.877 76.1631 61.877C77.0596 61.877 77.6396 61.1738 77.9736 60.2246L79.9248 54.7578H78.835Z" fill="white"/>
<rect x="1.02051" y="37" width="91" height="39.0625" rx="19.5312" stroke="#3624FF" stroke-width="2"/>
<path fill-rule="evenodd" clip-rule="evenodd" d="M3.22081 1.95927H25.3329V0H0V26.3073H1.88671V3.34469L24.6659 27L26 25.6146L3.22081 1.95927Z" fill="white"/>
</svg>
